<svg width="88" height="88" viewBox="0 0 88 88" fill="none" xmlns="http://www.w3.org/2000/svg">
<rect width="88" height="88" rx="44" fill="#EEF0FF"/>
<rect x="62" width="26" height="26" rx="13" fill="#7574FF"/>
<path d="M70.2173 18.2237C69.3621 18.2204 68.6263 18.0099 68.0099 17.5923C67.3967 17.1747 66.9244 16.5698 66.593 15.7777C66.2648 14.9856 66.1024 14.0327 66.1057 12.919C66.1057 11.8087 66.2698 10.8625 66.5979 10.0803C66.9294 9.29806 67.4017 8.70312 68.0148 8.29545C68.6313 7.88447 69.3655 7.67898 70.2173 7.67898C71.0691 7.67898 71.8015 7.88447 72.4147 8.29545C73.0312 8.70644 73.5051 9.30303 73.8366 10.0852C74.168 10.8641 74.3321 11.8087 74.3288 12.919C74.3288 14.036 74.163 14.9905 73.8316 15.7827C73.5035 16.5748 73.0328 17.1797 72.4197 17.5973C71.8065 18.0149 71.0724 18.2237 70.2173 18.2237ZM70.2173 16.4389C70.8006 16.4389 71.2663 16.1456 71.6143 15.5589C71.9623 14.9723 72.1346 14.0923 72.1313 12.919C72.1313 12.1468 72.0518 11.5038 71.8927 10.9901C71.7369 10.4763 71.5148 10.0902 71.2265 9.83168C70.9414 9.57315 70.605 9.44389 70.2173 9.44389C69.6372 9.44389 69.1732 9.7339 68.8252 10.3139C68.4772 10.8939 68.3015 11.7623 68.2982 12.919C68.2982 13.7012 68.3761 14.3542 68.5319 14.8778C68.691 15.3982 68.9147 15.7893 69.203 16.0511C69.4914 16.3097 69.8295 16.4389 70.2173 16.4389ZM79.6272 18.1392C78.8848 18.1392 78.2236 18.0116 77.6436 17.7564C77.0669 17.4979 76.6111 17.1432 76.2764 16.6925C75.9449 16.2384 75.7742 15.7147 75.7643 15.1214H77.9319C77.9452 15.37 78.0264 15.5888 78.1755 15.7777C78.328 15.9633 78.5302 16.1075 78.7821 16.2102C79.034 16.313 79.3173 16.3643 79.6322 16.3643C79.9603 16.3643 80.2503 16.3063 80.5022 16.1903C80.7541 16.0743 80.9513 15.9136 81.0939 15.7081C81.2364 15.5026 81.3076 15.2656 81.3076 14.9972C81.3076 14.7254 81.2314 14.4851 81.0789 14.2763C80.9298 14.0642 80.7144 13.8984 80.4326 13.7791C80.1542 13.6598 79.8228 13.6001 79.4383 13.6001H78.4887V12.0192H79.4383C79.7631 12.0192 80.0498 11.9628 80.2984 11.8501C80.5503 11.7375 80.7458 11.5817 80.885 11.3828C81.0242 11.1806 81.0939 10.9453 81.0939 10.6768C81.0939 10.4216 81.0325 10.1979 80.9099 10.0057C80.7906 9.81013 80.6215 9.65767 80.4028 9.5483C80.1874 9.43892 79.9355 9.38423 79.6471 9.38423C79.3555 9.38423 79.0886 9.43726 78.8467 9.54332C78.6047 9.64607 78.4108 9.79356 78.265 9.9858C78.1192 10.178 78.0413 10.4034 78.0314 10.6619H75.9681C75.9781 10.0753 76.1455 9.55824 76.4703 9.1108C76.7951 8.66335 77.2326 8.31368 77.7828 8.06179C78.3363 7.80658 78.961 7.67898 79.6571 7.67898C80.3597 7.67898 80.9745 7.80658 81.5015 8.06179C82.0285 8.317 82.4378 8.66169 82.7295 9.09588C83.0245 9.52675 83.1703 10.0107 83.167 10.5476C83.1703 11.1177 82.993 11.5933 82.635 11.9744C82.2804 12.3556 81.818 12.5975 81.248 12.7003V12.7798C81.997 12.8759 82.5671 13.1361 82.9582 13.5604C83.3526 13.9813 83.5482 14.5083 83.5448 15.1413C83.5482 15.7214 83.3808 16.2367 83.0427 16.6875C82.708 17.1383 82.2456 17.4929 81.6556 17.7514C81.0657 18.0099 80.3895 18.1392 79.6272 18.1392Z" fill="white"/>
<g clip-path="url(#clip0_12_4011)">
<path d="M49.5314 62.8572C51.4668 64.1059 53.7732 64.65 56.0627 64.3982C58.3521 64.1463 60.485 63.1139 62.1028 61.4744L63.5171 60.0915C64.1371 59.4573 64.4843 58.6056 64.4843 57.7187C64.4843 56.8317 64.1371 55.98 63.5171 55.3458L57.5142 49.4058C56.8853 48.7878 56.0389 48.4414 55.1571 48.4414C54.2753 48.4414 53.4288 48.7878 52.8 49.4058C52.1657 50.0259 51.314 50.373 50.4271 50.373C49.5402 50.373 48.6884 50.0259 48.0542 49.4058L38.6257 39.9772C38.3111 39.6673 38.0614 39.2979 37.8909 38.8905C37.7204 38.4832 37.6326 38.046 37.6326 37.6044C37.6326 37.1628 37.7204 36.7256 37.8909 36.3183C38.0614 35.9109 38.3111 35.5415 38.6257 35.2315C39.2437 34.6026 39.59 33.7562 39.59 32.8744C39.59 31.9926 39.2437 31.1461 38.6257 30.5172L32.6542 24.5458C32.02 23.9258 31.1683 23.5786 30.2814 23.5786C29.3944 23.5786 28.5427 23.9258 27.9085 24.5458L26.5257 25.9601C24.8862 27.5779 23.8537 29.7108 23.6019 32.0003C23.35 34.2897 23.8942 36.5961 25.1428 38.5315C31.6487 48.1195 39.9266 56.3762 49.5314 62.8572Z" stroke="#7574FF" stroke-width="3" stroke-linecap="round" stroke-linejoin="round"/>
</g>
<defs>
<clipPath id="clip0_12_4011">
<rect width="44" height="44" fill="white" transform="translate(22 22)"/>
</clipPath>
</defs>
</svg>